<mxfile host="app.diagrams.net" agent="Mozilla/5.0 (Windows NT 10.0; Win64; x64) AppleWebKit/537.36 (KHTML, like Gecko) Chrome/135.0.0.0 Safari/537.36" version="26.2.14">
  <diagram name="Página-1" id="l38yNn2JASajIYa1iZ3W">
    <mxGraphModel dx="1426" dy="777" grid="1" gridSize="10" guides="1" tooltips="1" connect="1" arrows="1" fold="1" page="1" pageScale="1" pageWidth="827" pageHeight="1169" math="0" shadow="0">
      <root>
        <mxCell id="0" />
        <mxCell id="1" parent="0" />
        <mxCell id="nbt0BQLY1YsCF11BBf1Y-7" value="" style="edgeStyle=orthogonalEdgeStyle;rounded=0;orthogonalLoop=1;jettySize=auto;html=1;" edge="1" parent="1" source="nbt0BQLY1YsCF11BBf1Y-1" target="nbt0BQLY1YsCF11BBf1Y-2">
          <mxGeometry relative="1" as="geometry" />
        </mxCell>
        <mxCell id="nbt0BQLY1YsCF11BBf1Y-1" value="Ingreso a la plataforma" style="rounded=0;whiteSpace=wrap;html=1;" vertex="1" parent="1">
          <mxGeometry x="20" y="20" width="110" height="60" as="geometry" />
        </mxCell>
        <mxCell id="nbt0BQLY1YsCF11BBf1Y-8" value="" style="edgeStyle=orthogonalEdgeStyle;rounded=0;orthogonalLoop=1;jettySize=auto;html=1;" edge="1" parent="1" source="nbt0BQLY1YsCF11BBf1Y-2" target="nbt0BQLY1YsCF11BBf1Y-3">
          <mxGeometry relative="1" as="geometry" />
        </mxCell>
        <mxCell id="nbt0BQLY1YsCF11BBf1Y-2" value="Iniciar sesión en la plataforma" style="rounded=0;whiteSpace=wrap;html=1;" vertex="1" parent="1">
          <mxGeometry x="180" y="20" width="120" height="60" as="geometry" />
        </mxCell>
        <mxCell id="nbt0BQLY1YsCF11BBf1Y-9" value="" style="edgeStyle=orthogonalEdgeStyle;rounded=0;orthogonalLoop=1;jettySize=auto;html=1;" edge="1" parent="1" source="nbt0BQLY1YsCF11BBf1Y-3" target="nbt0BQLY1YsCF11BBf1Y-4">
          <mxGeometry relative="1" as="geometry" />
        </mxCell>
        <mxCell id="nbt0BQLY1YsCF11BBf1Y-3" value="Realizar Examen" style="rounded=0;whiteSpace=wrap;html=1;" vertex="1" parent="1">
          <mxGeometry x="330" y="20" width="120" height="60" as="geometry" />
        </mxCell>
        <mxCell id="nbt0BQLY1YsCF11BBf1Y-10" value="" style="edgeStyle=orthogonalEdgeStyle;rounded=0;orthogonalLoop=1;jettySize=auto;html=1;" edge="1" parent="1" source="nbt0BQLY1YsCF11BBf1Y-4" target="nbt0BQLY1YsCF11BBf1Y-5">
          <mxGeometry relative="1" as="geometry" />
        </mxCell>
        <mxCell id="nbt0BQLY1YsCF11BBf1Y-4" value="Ver Nota" style="rounded=0;whiteSpace=wrap;html=1;" vertex="1" parent="1">
          <mxGeometry x="480" y="20" width="120" height="60" as="geometry" />
        </mxCell>
        <mxCell id="nbt0BQLY1YsCF11BBf1Y-11" style="edgeStyle=orthogonalEdgeStyle;rounded=0;orthogonalLoop=1;jettySize=auto;html=1;entryX=0.5;entryY=0;entryDx=0;entryDy=0;" edge="1" parent="1" source="nbt0BQLY1YsCF11BBf1Y-5" target="nbt0BQLY1YsCF11BBf1Y-6">
          <mxGeometry relative="1" as="geometry">
            <Array as="points" />
          </mxGeometry>
        </mxCell>
        <mxCell id="nbt0BQLY1YsCF11BBf1Y-5" value="Ver Promedio" style="rounded=0;whiteSpace=wrap;html=1;" vertex="1" parent="1">
          <mxGeometry x="630" y="20" width="120" height="60" as="geometry" />
        </mxCell>
        <mxCell id="nbt0BQLY1YsCF11BBf1Y-6" value="Cierre de Sesión en la Plataforma" style="rounded=0;whiteSpace=wrap;html=1;" vertex="1" parent="1">
          <mxGeometry x="630" y="140" width="120" height="60" as="geometry" />
        </mxCell>
      </root>
    </mxGraphModel>
  </diagram>
</mxfile>
